<?xml version="1.0" encoding="UTF-8"?>
<svg enable-background="new 0 0 479.97 479.97" version="1.1" viewBox="0 0 479.97 479.97" xml:space="preserve" xmlns="http://www.w3.org/2000/svg">

    
        <path d="m407.97 31.491c-0.538 0-1.075 0.054-1.602 0.162-16.044 3.229-32.715 0.323-46.72-8.144l-3.512-2.12c-0.221-0.11-0.448-0.209-0.68-0.296-0.232-0.112-0.464-0.208-0.704-0.304-1.776-0.656-3.728-0.656-5.504 0-0.24 0.096-0.472 0.192-0.704 0.304-0.232 0.087-0.458 0.186-0.68 0.296l-3.512 2.12c-14.021 8.487-30.72 11.394-46.784 8.144-4.329-0.884-8.555 1.909-9.438 6.238-0.108 0.527-0.162 1.064-0.162 1.602v80.56c0 11.348 3.068 22.485 8.88 32.232 6.721 11.314 16.862 20.2 28.96 25.376l23.024 9.92c2.007 0.864 4.281 0.864 6.288 0l23.032-9.92c12.086-5.182 22.216-14.068 28.928-25.376 5.815-9.746 8.886-20.883 8.888-32.232v-80.56c1e-3 -4.419-3.58-8.002-7.998-8.002zm-64.002 136.58-11.864-5.112c-8.991-3.856-16.527-10.467-21.52-18.88-4.325-7.259-6.611-15.55-6.616-24v-71.392c13.713 1.092 27.478-1.322 40-7.016v126.4zm56-48.016c-5e-3 8.45-2.291 16.741-6.616 24-4.993 8.413-12.529 15.024-21.52 18.88l-11.864 5.144v-126.41c12.523 5.692 26.288 8.106 40 7.016v71.368z"/>
    


    
        <path d="m454.69 177.04c-1.643-4.101-6.3-6.094-10.401-4.452-4.102 1.643-6.095 6.3-4.452 10.401 0.061 0.152 0.127 0.302 0.197 0.45 10.573 24.22 16 50.373 15.936 76.8 0 4.418 3.582 8 8 8s8-3.582 8-8c0.07-28.63-5.815-56.963-17.28-83.199z"/>
    


    
        <path d="m239.97 52.236c-60.794-0.014-118.55 26.588-158.05 72.8-2.872 3.358-2.478 8.408 0.88 11.28s8.408 2.478 11.28-0.88c36.459-42.66 89.77-67.217 145.89-67.2 4.418 0 8-3.582 8-8s-3.582-8-8-8z"/>
    


    
        <path d="m472.66 327.52-53.24-53.272c-2.949-2.924-6.261-5.457-9.856-7.536 16.982-14.13 19.294-39.351 5.164-56.332-14.13-16.982-39.351-19.294-56.332-5.164-16.982 14.13-19.294 39.351-5.164 56.332 1.917 2.304 4.087 4.385 6.468 6.204-2.865 1.827-5.526 3.956-7.936 6.352l-14.544 13.808c-5.091 4.865-13.155 4.704-18.048-0.36l-53.264-53.272c-2.263-2.257-4.748-4.281-7.416-6.04 22.106-14.631 28.166-44.413 13.535-66.519s-44.413-28.166-66.519-13.535-28.166 44.413-13.535 66.519c3.557 5.375 8.16 9.978 13.535 13.535-2.665 1.764-5.146 3.79-7.408 6.048l-40.76 40.8-35.912-25.792c-2.065-1.963-4.3-3.738-6.68-5.304 3.252-2.216 6.223-4.819 8.848-7.752h20.376c4.418 2e-3 8.002-3.578 8.004-7.996 1e-3 -1.243-0.288-2.468-0.844-3.58l-17.808-35.624c-1.425-4.415-3.498-8.594-6.152-12.4-0.443-0.86-1.043-1.631-1.768-2.272-16.291-20.655-46.242-24.193-66.897-7.902-3.2 2.524-6.064 5.449-8.519 8.702-0.315 0.349-0.604 0.72-0.864 1.112-2.755 3.892-4.913 8.174-6.4 12.704l-17.84 35.664c-1.984 3.948-0.392 8.756 3.556 10.74 1.096 0.551 2.305 0.842 3.532 0.852h20.44c2.611 2.907 5.566 5.486 8.8 7.68-2.567 1.714-4.962 3.672-7.152 5.848l-46.744 47.272c-9.751 9.75-9.752 25.559-2e-3 35.31 4.683 4.683 11.035 7.314 17.658 7.314 5.928-0.021 11.659-2.131 16.184-5.96l-16.92 68c-1.1 4.279 1.477 8.64 5.756 9.74 0.647 0.166 1.312 0.251 1.98 0.252h16v24c-8e-3 13.219 10.701 23.943 23.921 23.951 5.942 4e-3 11.674-2.203 16.079-6.191 9.8 8.872 24.937 8.119 33.809-1.681 3.988-4.405 6.195-10.137 6.191-16.079v-24h16c4.418 3e-3 8.003-3.576 8.006-7.994 0-0.655-0.079-1.307-0.238-1.942l-19.736-79.384 11.04 5.704c4.754 2.492 10.066 3.731 15.432 3.6 0.515 0.032 1.031 0.019 1.544-0.04 0.352 0 0.72 0.056 0.92 0.056 6.622-0.019 12.97-2.649 17.664-7.32l13.368-13.368v124.69c-0.038 13.206 10.636 23.943 23.842 23.981 5.974 0.017 11.738-2.202 16.158-6.221 9.8 8.872 24.937 8.119 33.809-1.681 3.988-4.405 6.195-10.137 6.191-16.079v-124.69l25.6 25.6c12.034 12.408 30.409 16.241 46.4 9.68v89.408c-0.038 13.206 10.636 23.943 23.842 23.981 5.974 0.017 11.738-2.202 16.158-6.221 9.8 8.872 24.937 8.119 33.809-1.681 3.988-4.405 6.195-10.137 6.191-16.079v-85.464l13.368 12.6c9.756 9.751 25.57 9.747 35.321-9e-3 4.679-4.681 7.308-11.028 7.311-17.647 0.019-6.626-2.614-12.984-7.312-17.656zm-88.688-115.28c13.255 0 24 10.745 24 24s-10.745 24-24 24-24-10.745-24-24 10.745-24 24-24zm-184-24c0-17.673 14.327-32 32-32s32 14.327 32 32-14.327 32-32 32-32-14.327-32-32zm-143.81 32h-11.2l12.288-24.608c0.181-0.362 0.336-0.736 0.464-1.12 0.998-3.185 2.488-6.195 4.416-8.92 0.144-0.168 0.296-0.344 0.432-0.528 10.397-14.05 30.215-17.011 44.266-6.614 2.52 1.865 4.749 4.094 6.614 6.614 0.128 0.176 0.272 0.344 0.416 0.512 1.939 2.726 3.435 5.742 4.432 8.936 0.128 0.384 0.283 0.758 0.464 1.12l12.304 24.608h-11.2c-2.518 0-4.889 1.186-6.4 3.2-5.516 7.324-13.941 11.892-23.088 12.52-1.64-0.08-3.256-0.096-4.896 0-9.084-0.679-17.434-5.242-22.912-12.52-1.511-2.014-3.882-3.2-6.4-3.2zm405.2 131.28c-1.679 1.681-3.957 2.626-6.333 2.629-2.455-0.024-4.799-1.025-6.513-2.784l-27.024-25.52c-3.198-3.049-8.262-2.928-11.31 0.27-1.434 1.504-2.227 3.508-2.21 5.586v104c0 4.418-3.582 8-8 8s-8-3.582-8-8v-59.856c0-4.418-3.582-8-8-8s-8 3.582-8 8v59.856c0 4.418-3.582 8-8 8s-8-3.582-8-8v-104c2e-3 -4.418-3.578-8.001-7.997-8.003-2.041-1e-3 -4.006 0.779-5.491 2.179-10.343 10.214-27.007 10.11-37.221-0.233-0.128-0.129-0.254-0.26-0.379-0.391l-39.2-39.2c-3.093-3.155-8.158-3.204-11.313-0.111-1.546 1.516-2.411 3.594-2.399 5.759v144c0 4.418-3.582 8-8 8s-8-3.582-8-8v-96c0-4.418-3.582-8-8-8s-8 3.582-8 8v96c0 4.418-3.582 8-8 8s-8-3.582-8-8v-144c-1e-3 -4.418-3.583-7.999-8.002-7.998-2.121 0-4.154 0.843-5.654 2.342l-27 27c-1.543 1.56-3.603 2.501-5.792 2.648-0.208 0-0.8-0.096-1.04-0.112s-0.416 0-0.616 0c-0.373-0.028-0.747-0.028-1.12 0-0.271 0-0.541 0.04-0.8 0.12-2.611-4e-3 -5.183-0.629-7.504-1.824l-26.744-13.832c-3.924-2.03-8.751-0.494-10.781 3.43-0.892 1.725-1.127 3.716-0.659 5.602l21.536 86.624h-13.823c-4.418 0-8 3.582-8 8v32c0 4.418-3.582 8-8 8s-8-3.582-8-8v-32c0-4.418-3.582-8-8-8s-8 3.582-8 8v32c0 4.418-3.582 8-8 8s-8-3.582-8-8v-32c0-4.418-3.582-8-8-8h-13.736l21.536-86.656c1.061-4.289-1.555-8.626-5.844-9.688-2.761-0.683-5.678 0.151-7.66 2.191l-18.952 19.496c-3.483 3.521-9.161 3.552-12.682 0.07-1.704-1.686-2.663-3.984-2.661-6.382-0.014-2.404 0.944-4.712 2.656-6.4l46.784-47.288c5.126-5.078 11.832-8.253 19.008-9 1.192 0.088 2.4 0.192 3.584 0.192s2.4-0.104 3.584-0.192c7.176 0.747 13.882 3.922 19.008 9 0.306 0.31 0.638 0.594 0.992 0.848l41.936 30.112c3.184 2.282 7.552 1.923 10.32-0.848l45.6-45.6c12.489-12.45 32.695-12.45 45.184 0l53.344 53.44c11.019 11.144 28.945 11.375 40.248 0.52l14.688-13.944c12.642-12.073 32.542-12.073 45.184 0l53.264 53.264c3.503 3.502 3.505 9.18 4e-3 12.684z"/>
    
















</svg>
