<?xml version="1.0" encoding="UTF-8"?>
<svg enable-background="new 0 0 51.997 51.997" version="1.1" viewBox="0 0 51.997 51.997" xml:space="preserve" xmlns="http://www.w3.org/2000/svg">

	<path d="m51.911 16.242c-0.759-8.354-6.672-14.415-14.072-14.415-4.93 0-9.444 2.653-11.984 6.905-2.517-4.307-6.846-6.906-11.697-6.906-7.399 0-13.313 6.061-14.071 14.415-0.06 0.369-0.306 2.311 0.442 5.478 1.078 4.568 3.568 8.723 7.199 12.013l18.115 16.439 18.426-16.438c3.631-3.291 6.121-7.445 7.199-12.014 0.748-3.166 0.502-5.108 0.443-5.477zm-2.39 5.019c-0.984 4.172-3.265 7.973-6.59 10.985l-17.076 15.235-16.783-15.231c-3.331-3.018-5.611-6.818-6.596-10.99-0.708-2.997-0.417-4.69-0.416-4.701l0.015-0.101c0.65-7.319 5.731-12.632 12.083-12.632 4.687 0 8.813 2.88 10.771 7.515l0.921 2.183 0.921-2.183c1.927-4.564 6.271-7.514 11.069-7.514 6.351 0 11.433 5.313 12.096 12.727 2e-3 0.016 0.293 1.71-0.415 4.707z"/>
	<path d="m15.999 7.904c-5.514 0-10 4.486-10 10 0 0.553 0.447 1 1 1s1-0.447 1-1c0-4.411 3.589-8 8-8 0.553 0 1-0.447 1-1s-0.448-1-1-1z"/>
















</svg>
