<?xml version="1.0" encoding="UTF-8"?>
<svg enable-background="new 0 0 211.305 211.305" version="1.1" viewBox="0 0 211.3 211.3" xml:space="preserve" xmlns="http://www.w3.org/2000/svg">

	
		<path d="m171.61 78.1c-0.746-0.945-1.461-1.854-2.138-2.727-6.578-8.477-9.919-17.923-12.868-26.255-2.099-5.932-3.912-11.054-6.554-14.725-7.221-10.028-34.388-14.087-40.311-13.906-6.405 0.189-9.062 5.675-9.873 10.086-1.932 0.539-4.46 1.659-6.687 3.995-5.687 5.97 3.343 20.115 11.238 27.795 6.315 6.146 10.67 5.847 14.507 5.594 1.725-0.116 3.36-0.225 5.386 0.236 4.738 1.073 9.339 4.782 11.356 6.584-1.84 31.985 3.482 47.734 5.811 54.566-1.814-0.189-4.314-0.616-6.803-1.179-13.778-25.498-42.327-22.219-51.014-20.545-12.386-19.066-33.508-25.368-49.467-24.868-14.843 0.481-24.247-0.471-24.341-0.48-1.563-0.174-3.069 0.785-3.584 2.29-0.481 1.403-11.595 34.731 1.958 67.307 13.16 31.63 28.805 57.535 28.962 57.793 0.642 1.058 1.766 1.644 2.922 1.644 0.594 0 1.2-0.155 1.748-0.485 15.447-9.231 22.033-21.419 24.496-27.462 30.732 12.02 63.65 7.661 86.212 1.72 25.194-6.634 42.742-16.34 43.477-16.749 0.942-0.526 1.58-1.468 1.722-2.536 6.134-46.692-14.078-72.359-26.155-87.693zm19.601 85.064c-10.435 5.369-72.922 35.349-125.54 12.536-0.92-0.398-1.966-0.365-2.86 0.072-0.898 0.439-1.558 1.254-1.807 2.222-0.038 0.15-3.838 14.304-19.753 25.12-4.425-7.637-16.355-28.943-26.725-53.866-10.5-25.237-4.754-51.799-2.543-59.956 3.941 0.266 11.779 0.626 22.424 0.28 14.619-0.492 34.026 5.485 44.677 23.629 0.785 1.34 2.379 1.98 3.874 1.557 0.329-0.094 32.973-8.986 46.346 17.884 0.445 0.894 1.259 1.548 2.227 1.79 13.624 3.408 15.596 1.207 16.546 0.145 1.734-1.934 0.997-4.091-0.116-7.359-2.222-6.516-7.426-21.775-5.388-53.617 0.063-0.968-0.29-1.915-0.968-2.608-0.304-0.307-7.504-7.581-15.79-9.46-2.999-0.679-5.412-0.521-7.354-0.387-3.33 0.222-5.156 0.345-9.289-3.676-7.381-7.182-11.496-16.159-10.941-18.311 2.113-2.123 4.731-2.253 4.801-2.256 1.852-0.027 3.345-1.524 3.366-3.376 0-0.061 0.16-6.117 3.538-6.217 0.15-5e-3 0.307-7e-3 0.473-7e-3 7.617 0 29.541 4.751 34.098 11.08 2.07 2.879 3.732 7.576 5.656 13.013 2.966 8.383 6.658 18.814 13.911 28.163 0.69 0.887 1.415 1.809 2.169 2.766 11.986 15.223 30.02 38.119 24.965 80.839z"/>
	


	
		<path d="m181.47 1c-1.333-1.333-3.494-1.333-4.826 0l-20.48 20.48c-1.333 1.333-1.333 3.494 0 4.826 0.667 0.667 1.539 1 2.413 1s1.746-0.334 2.413-1l20.48-20.48c1.333-1.333 1.333-3.493 0-4.826z"/>
	


	
		<path d="m206.12 29.45c-0.703-1.751-2.683-2.604-4.439-1.901l-34.133 13.653c-1.749 0.701-2.601 2.688-1.901 4.437 0.534 1.335 1.816 2.147 3.171 2.147 0.422 0 0.85-0.079 1.268-0.246l34.133-13.653c1.749-0.701 2.601-2.688 1.901-4.437z"/>
	


	
		<path d="m209.75 61.016c-0.232-1.87-1.959-3.21-3.809-2.963l-27.307 3.413c-1.869 0.232-3.197 1.939-2.963 3.809 0.215 1.727 1.686 2.99 3.381 2.99 0.142 0 0.285-9e-3 0.428-0.027l27.307-3.413c1.869-0.232 3.195-1.938 2.963-3.809z"/>
	


	
		<path d="m137.58 155.21c-0.998-1.599-3.108-2.082-4.704-1.085-24.788 15.486-60.394-16.377-60.75-16.7-1.393-1.265-3.553-1.162-4.821 0.232-1.266 1.394-1.162 3.552 0.23 4.82 0.398 0.36 9.887 8.924 22.956 15.461 9.649 4.825 18.729 7.243 26.964 7.243 7.014 0 13.416-1.754 19.038-5.267 1.601-1.001 2.085-3.105 1.087-4.704z"/>
	


	
		<path d="m89.937 121.32-8.75-17.082c-0.86-1.679-2.918-2.343-4.594-1.483s-2.34 2.917-1.481 4.594l8.75 17.082c0.604 1.181 1.799 1.859 3.041 1.859 0.524 0 1.055-0.121 1.553-0.375 1.675-0.861 2.339-2.917 1.481-4.595z"/>
	
















</svg>
