<?xml version="1.0" encoding="UTF-8"?>
<svg enable-background="new 0 0 512 512" version="1.1" viewBox="0 0 512 512" xml:space="preserve" xmlns="http://www.w3.org/2000/svg">

	
		<path d="m451.46 201.64-0.082-0.336c-1.327-5.361-6.748-8.63-12.108-7.304-5.36 1.327-8.631 6.747-7.304 12.109l0.06 0.243c1.109 4.576 5.2 7.645 9.709 7.645 0.78 0 1.573-0.092 2.364-0.284 5.366-1.302 8.663-6.707 7.361-12.073z"/>
	


	
		<path d="m186.69 326.25c-24.86-15-39.702-41.266-39.702-70.26 0-8.962 1.435-17.768 4.264-26.172 1.762-5.233-1.053-10.905-6.286-12.666-5.233-1.76-10.904 1.054-12.666 6.287-3.522 10.464-5.308 21.416-5.308 32.552 0 36.063 18.456 68.73 49.368 87.383 1.617 0.975 3.397 1.439 5.156 1.439 3.388 0 6.692-1.724 8.57-4.836 2.853-4.728 1.333-10.873-3.396-13.727z"/>
	


	
		<path d="m298.88 181.73c-18.987-17.877-43.813-27.723-69.904-27.723-12.219 0-24.175 2.142-35.535 6.364-5.176 1.925-7.812 7.68-5.888 12.857s7.679 7.813 12.857 5.888c9.124-3.392 18.734-5.112 28.567-5.112 20.975 0 40.932 7.914 56.194 22.285 1.931 1.819 4.394 2.72 6.852 2.72 2.66 0 5.314-1.055 7.282-3.145 3.785-4.02 3.594-10.349-0.425-14.134z"/>
	


	
		<path d="m502 259.01h-75.226v-20.686c0-10.055-8.181-18.236-18.236-18.236h-13.423c-6.874-31.95-22.705-61.05-45.94-84.286-39.427-39.427-95.76-57.01-150.69-47.043-5.433 0.986-9.039 6.19-8.053 11.624s6.191 9.036 11.624 8.053c48.479-8.798 98.193 6.718 132.98 41.508 19.479 19.479 33.065 43.621 39.574 70.145h-54.586c-10.055 0-18.236 8.181-18.236 18.236v20.686h-75.226c-5.522 0-9.999 4.478-9.999 9.999v61.339c0 9.386 3.655 17.929 9.608 24.299v51.314c-39.008-0.666-75.437-16.097-103.25-43.907-35.695-35.695-50.987-86.578-40.906-136.11 1.101-5.411-2.393-10.691-7.804-11.792-5.413-1.102-10.691 2.393-11.792 7.804-11.422 56.129 5.908 113.79 46.36 154.24 31.126 31.126 73.519 48.994 117.39 49.749v36.233c0 0.938 0.063 1.86 0.174 2.768-114.02-1.418-206.35-94.595-206.35-208.95 0-35.757 9.095-70.709 26.37-101.68l33.737 33.897c1.877 1.886 4.428 2.946 7.087 2.946h62.89l61.653 61.653c1.953 1.953 4.512 2.929 7.07 2.929 2.559 0 5.119-0.976 7.07-2.929 3.905-3.905 3.905-10.236 0-14.142l-61.654-61.653v-62.89c0-2.656-1.057-5.203-2.938-7.079l-33.831-33.748c30.934-17.217 65.828-26.281 101.52-26.281 81.116 0 155.58 47.573 189.71 121.2 1.692 3.65 5.304 5.796 9.078 5.796 1.408 0 2.838-0.299 4.199-0.93 5.01-2.323 7.189-8.267 4.867-13.277-18.119-39.088-46.821-72.211-83.006-95.787-37.147-24.205-80.319-36.998-124.85-36.998-41.022 0-81.088 10.929-116.2 31.641l-28.777-28.71c-2.863-2.855-7.161-3.707-10.894-2.157-3.734 1.549-6.166 5.193-6.166 9.235v56.667h-56.842c-4.041 0-7.683 2.431-9.233 6.161-1.55 3.731-0.704 8.027 2.146 10.891l28.733 28.869c-20.78 35.157-31.745 75.286-31.745 116.38 0 61.162 23.818 118.66 67.066 161.91 43.248 43.249 100.75 67.066 161.91 67.066l250.6 0.011c12.578 0 22.811-10.232 22.811-22.811v-107.52c6.2-6.62 9.608-15.207 9.608-24.322v-61.322c0-5.521-4.477-9.998-9.999-9.998zm-415.06-197.88 57.286 57.144v38.704l-57.286-57.415v-38.433zm-14.147 52.567 57.292 57.46h-38.736l-57.189-57.46h38.633zm248.99 126.39h84.991v18.924h-84.991v-18.924zm160.61 176.9h-65.618c-5.522 0-9.999 4.478-9.999 9.999s4.477 9.999 9.999 9.999h65.618v25.191c0 1.552-1.261 2.814-2.812 2.814h-218.34c-0.072-1e-3 -0.141-0.011-0.213-0.011h-12.152c-1.501-0.057-2.706-1.287-2.706-2.802v-96.726c1.957 0.334 3.965 0.518 6.015 0.518h82.464c1.773 14.782 14.383 26.28 29.635 26.28 15.275 0 27.901-11.534 29.643-26.349l82.432 0.052h0.023c2.037 0 4.046-0.18 6.014-0.513v51.548zm-127.97-54.594v-17.577h19.716v17.577c0 5.436-4.423 9.858-9.858 9.858s-9.858-4.422-9.858-9.858zm137.58-32.062c0 4.176-1.626 8.1-4.58 11.051-2.951 2.949-6.872 4.573-11.044 4.573h-0.01l-82.232-0.052v-9.164c0-6.573-5.347-11.921-11.921-11.921h-35.871c-6.573 0-11.921 5.347-11.921 11.921v9.232h-82.242c-8.615 0-15.623-7.009-15.623-15.623v-51.339h255.44v51.322z"/>
	


	
		<path d="m374.85 419.91c-1.86-1.86-4.44-2.93-7.069-2.93-2.64 0-5.209 1.069-7.079 2.93-1.86 1.86-2.92 4.44-2.92 7.069 0 2.63 1.06 5.209 2.92 7.068 1.87 1.86 4.44 2.931 7.079 2.931 2.63 0 5.2-1.07 7.069-2.931 1.86-1.859 2.93-4.439 2.93-7.068s-1.07-5.209-2.93-7.069z"/>
	
















</svg>
